<svg width="15" height="9" viewBox="0 0 15 9" fill="none" xmlns="http://www.w3.org/2000/svg">
<path d="M14.6319 1.72796L13.612 1.72796L13.612 1.05075C13.612 0.472409 13.2239 -7.76339e-08 12.7475 -9.84581e-08L0.865137 -6.17854e-07C0.388092 -6.38707e-07 -2.29808e-07 0.472408 -2.55088e-07 1.05075L-5.56632e-07 7.94925C-5.81912e-07 8.52759 0.388091 9 0.865137 9L12.7475 9C13.2246 9 13.612 8.52759 13.612 7.94925L13.612 7.27204L14.6319 7.27282C14.835 7.27282 15 7.07194 15 6.82318L15 2.17843C15 1.92889 14.835 1.72796 14.6319 1.72796ZM14.2625 2.62647L14.2625 6.37505L13.612 6.37505L13.612 2.62647L14.2625 2.62647ZM12.8726 7.25876L12.8726 7.9501C12.8726 8.03249 12.8146 8.10312 12.7475 8.10312L0.865135 8.10312C0.795511 8.10312 0.739426 8.03249 0.739426 7.9501L0.739427 1.05159C0.739427 0.969193 0.795511 0.898569 0.865136 0.898569L12.7475 0.89857C12.8152 0.89857 12.8726 0.969194 12.8726 1.05159L12.8726 7.25876Z" fill="#CCCCCC"/>
<path d="M9.13965 1.78867L9.13965 7.21287L7.27403 7.21287L7.27403 1.78867L9.13965 1.78867Z" fill="#CCCCCC"/>
<path d="M3.87207 1.78867L3.87207 7.21287L2.00645 7.21287L2.00645 1.78867L3.87207 1.78867Z" fill="#CCCCCC"/>
<path d="M6.50586 1.78867L6.50586 7.21287L4.64024 7.21287L4.64024 1.78867L6.50586 1.78867Z" fill="#CCCCCC"/>
</svg>
