<svg width="15" height="15" viewBox="0 0 15 15" fill="none" xmlns="http://www.w3.org/2000/svg">
<path fill-rule="evenodd" clip-rule="evenodd" d="M0.146296 5.65707L14.4092 0.0162132C14.4507 -0.000325835 14.4963 -0.00431855 14.5401 0.00472839C14.5839 0.0137753 14.6241 0.0354654 14.6558 0.0671183C14.6874 0.0987712 14.7091 0.139 14.7181 0.182832C14.7271 0.226665 14.7231 0.272181 14.7065 0.313755L9.06535 14.5774C9.04818 14.6212 9.01797 14.6586 8.97883 14.6845C8.93968 14.7105 8.89349 14.7238 8.84653 14.7227C8.79956 14.7215 8.75408 14.7059 8.71627 14.6781C8.67846 14.6502 8.65014 14.6113 8.63515 14.5668L6.55775 8.48936L8.50429 6.54283C8.54724 6.49981 8.57134 6.4415 8.57129 6.38072C8.57125 6.31993 8.54706 6.26165 8.50404 6.21871C8.48274 6.19744 8.45747 6.18058 8.42965 6.16908C8.40184 6.15758 8.37203 6.15168 8.34193 6.1517C8.28115 6.15175 8.22287 6.17594 8.17992 6.21895L6.23339 8.16549L0.168051 6.09136C0.121635 6.07855 0.0804397 6.05142 0.0503218 6.01385C0.020204 5.97628 0.00269607 5.93017 0.000286896 5.88208C-0.00212228 5.83398 0.0106899 5.78636 0.0369021 5.74596C0.0631143 5.70557 0.101393 5.67446 0.146296 5.65707Z" fill="#3DA9FF"/>
</svg>
